<?xml version="1.0" encoding="UTF-8" standalone="no"?>
<!DOCTYPE svg PUBLIC "-//W3C//DTD SVG 1.1//EN" "http://www.w3.org/Graphics/SVG/1.1/DTD/svg11.dtd">
<svg width="100%" height="100%" viewBox="0 0 128 128" version="1.1" xmlns="http://www.w3.org/2000/svg" xmlns:xlink="http://www.w3.org/1999/xlink" xml:space="preserve" xmlns:serif="http://www.serif.com/" style="fill-rule:evenodd;clip-rule:evenodd;stroke-linejoin:round;stroke-miterlimit:2;">
    <g transform="matrix(0.24,0,0,0.24,0,0)">
        <g transform="matrix(4.26519,0,0,4.26519,-741.309,7.60339)">
            <g transform="matrix(1,0,0,1,241.339,26.7754)">
                <path d="M0,7.671L8.651,0L-1.586,3.483C-1.573,3.63 -1.541,3.772 -1.541,3.922C-1.541,4.692 -1.718,5.418 -2.018,6.077L0,7.671Z" style="fill:rgb(24,23,21);fill-rule:nonzero;"/>
            </g>
            <g transform="matrix(1,0,0,1,239.798,38.9847)">
                <path d="M0,17.951C0.463,17.951 0.903,18.031 1.331,18.143L6.926,7.939C5.889,6.984 5.229,5.627 5.229,4.106C5.229,3.336 5.406,2.61 5.705,1.951L1.634,-1.265L-10.771,9.736C-10.391,10.461 -10.155,11.274 -10.155,12.15C-10.155,12.834 -10.295,13.484 -10.534,14.084L-3.375,19.216C-2.463,18.438 -1.294,17.951 0,17.951" style="fill:rgb(24,23,21);fill-rule:nonzero;"/>
            </g>
            <g transform="matrix(1,0,0,1,227.788,71.7632)">
                <path d="M0,-16.664C-0.913,-15.886 -2.082,-15.399 -3.375,-15.399C-3.834,-15.399 -4.271,-15.477 -4.696,-15.588L-12.865,-0.617C-12.659,-0.428 -12.475,-0.22 -12.301,0L6.875,-8.657C6.818,-8.963 6.779,-9.275 6.779,-9.598C6.779,-10.283 6.92,-10.932 7.159,-11.531L0,-16.664Z" style="fill:rgb(24,23,21);fill-rule:nonzero;"/>
            </g>
            <g transform="matrix(1,0,0,1,286.299,72.2231)">
                <path d="M0,-20.244C0,-47.221 -21.869,-69.09 -48.845,-69.09C-73.755,-69.09 -94.295,-50.439 -97.298,-26.342L-91.01,-27.023C-90.663,-29.575 -88.498,-31.548 -85.852,-31.548C-84.177,-31.548 -82.703,-30.747 -81.746,-29.523L-56.868,-40.61C-56.922,-40.909 -56.961,-41.212 -56.961,-41.526C-56.961,-44.414 -54.619,-46.756 -51.731,-46.756C-49.883,-46.756 -48.267,-45.791 -47.336,-44.343L-35.997,-48.204C-36.01,-48.351 -36.042,-48.493 -36.042,-48.643C-36.042,-51.532 -33.7,-53.873 -30.812,-53.873C-27.924,-53.873 -25.582,-51.532 -25.582,-48.643C-25.582,-47.374 -26.053,-46.227 -26.805,-45.321L-11.61,-24.695L-31.18,-27.236C-31.326,-26.863 -31.505,-26.507 -31.728,-26.181L-17.645,-10.391C-16.679,-10.963 -15.566,-11.313 -14.365,-11.313C-10.79,-11.313 -7.881,-8.404 -7.881,-4.828C-7.881,-1.253 -10.79,1.656 -14.365,1.656C-17.866,1.656 -20.709,-1.137 -20.828,-4.608L-41.692,-8.004C-42.491,-6.137 -44.343,-4.828 -46.501,-4.828C-48.167,-4.828 -49.633,-5.621 -50.591,-6.834L-69.766,1.823C-69.709,2.13 -69.671,2.442 -69.671,2.764C-69.671,5.652 -72.012,7.994 -74.9,7.994C-77.788,7.994 -80.13,5.652 -80.13,2.764C-80.13,0.977 -79.23,-0.598 -77.862,-1.541L-85.246,-21.15C-85.447,-21.126 -85.644,-21.089 -85.852,-21.089C-88.106,-21.089 -90.012,-22.525 -90.745,-24.526L-97.548,-23.79C-97.632,-22.618 -97.69,-21.438 -97.69,-20.244C-97.69,6.732 -75.822,28.6 -48.846,28.601L-48.846,48.846L-14.307,14.307L-14.313,14.301C-5.47,5.461 0,-6.753 0,-20.244" style="fill:rgb(24,23,21);fill-rule:nonzero;"/>
            </g>
            <g transform="matrix(1,0,0,1,203.411,67.9466)">
                <path d="M0,-17.737L7.384,1.872C7.584,1.849 7.781,1.811 7.988,1.811C8.447,1.811 8.885,1.889 9.309,2L17.478,-12.972C16.471,-13.896 15.829,-15.201 15.788,-16.665L1.71,-19.737C1.313,-18.935 0.731,-18.241 0,-17.737" style="fill:rgb(24,23,21);fill-rule:nonzero;"/>
            </g>
            <g transform="matrix(1,0,0,1,205.585,37.7399)">
                <path d="M0,7.249C0.045,7.499 0.07,7.756 0.078,8.018L14.155,11.091C15.009,9.363 16.771,8.165 18.828,8.165C19.218,8.165 19.594,8.214 19.96,8.295L25.61,-3.077C25.339,-3.307 25.094,-3.562 24.874,-3.842L0,7.249Z" style="fill:rgb(24,23,21);fill-rule:nonzero;"/>
            </g>
            <g transform="matrix(1,0,0,1,234.568,44.8019)">
                <path d="M0,-8.875C-0.39,-8.875 -0.767,-8.925 -1.132,-9.006L-6.158,1.111L4.864,-8.663L3.188,-9.986C2.304,-9.3 1.207,-8.875 0,-8.875" style="fill:rgb(24,23,21);fill-rule:nonzero;"/>
            </g>
            <g transform="matrix(1,0,0,1,269.179,27.8844)">
                <path d="M0,16.397L-11.692,0.525C-12.309,0.781 -12.983,0.925 -13.692,0.925C-14.793,0.925 -15.813,0.581 -16.654,0L-25.838,8.144L-22.11,11.088C-21.226,10.401 -20.128,9.977 -18.922,9.977C-16.237,9.977 -14.05,12.007 -13.752,14.612L0,16.397Z" style="fill:rgb(24,23,21);fill-rule:nonzero;"/>
            </g>
            <g transform="matrix(1,0,0,1,265.877,47.6978)">
                <path d="M0,17.44C0.222,16.847 0.526,16.301 0.902,15.805L-13.193,0C-13.922,0.384 -14.739,0.623 -15.62,0.623C-16.083,0.623 -16.523,0.544 -16.95,0.431L-22.546,10.634C-21.609,11.498 -21.004,12.694 -20.893,14.04L0,17.44Z" style="fill:rgb(24,23,21);fill-rule:nonzero;"/>
            </g>
        </g>
    </g>
</svg>
