<?xml version="1.0" encoding="UTF-8" standalone="no"?>
<!DOCTYPE svg PUBLIC "-//W3C//DTD SVG 1.1//EN" "http://www.w3.org/Graphics/SVG/1.1/DTD/svg11.dtd">
<svg width="100%" height="100%" viewBox="0 0 534 534" version="1.1" xmlns="http://www.w3.org/2000/svg" xmlns:xlink="http://www.w3.org/1999/xlink" xml:space="preserve" xmlns:serif="http://www.serif.com/" style="fill-rule:evenodd;clip-rule:evenodd;stroke-linejoin:round;stroke-miterlimit:2;">
    <g transform="matrix(0.0391147,1.0481e-33,-1.0481e-33,-0.0391147,71.0906,270.966)">
        <path d="M2883,5005.3C2774.5,4971.8 2705.4,4894.8 2705.4,4802.1C2705.4,4742.9 2758.7,4648.2 2806,4622.6C2829.7,4610.8 2900.7,4593 2963.8,4585.1C3265.7,4541.7 3506.4,4310.9 3709.6,3870.9C3865.5,3533.5 3908.9,3350 4273.9,1546.7C4591.6,-33.8 4642.9,-325.8 4635,-495.5C4621.2,-742.1 4548.2,-852.6 4341,-949.3C4262.1,-984.8 4179.2,-1002.6 4064.8,-1010.5C3974,-1018.4 3871.5,-1036.1 3839.9,-1050C3719.5,-1105.2 3723.5,-1079.6 3709.7,-2093.7C3697.9,-3103.9 3697.9,-3105.8 3575.5,-3376.2C3350.6,-3871.4 2896.8,-4232.5 2366,-4341C2283.1,-4358.7 2168.7,-4372.6 2115.4,-4372.6C1931.9,-4372.6 1837.2,-4443.6 1837.2,-4579.8C1837.2,-4753.4 1935.8,-4808.7 2212.1,-4785C3072.3,-4717.9 3814.2,-4110.2 4056.9,-3277.6C4131.9,-3017.2 4145.7,-2837.6 4145.7,-2111.6L4145.7,-1436.8L4293.7,-1403.3C4788.9,-1294.8 5061.2,-953.5 5061.2,-446.4C5059.2,-294.5 5031.6,-113 4907.3,520.4C4660.7,1781.2 4347,3292.5 4291.7,3497.7C4084.5,4263.4 3688,4804 3226.3,4956C3103.9,4995.4 2934.3,5021.1 2883,5005.3Z" style="fill-rule:nonzero;"/>
        <g transform="matrix(25.5658,6.8505e-31,-6.8505e-31,-25.5658,-1817.49,6927.46)">
            <g id="language-big" transform="matrix(6.75749,0,0,6.75749,296.793,157.768)">
                <path id="japanese" d="M18.498,9.4L18.832,8.678L20.109,9.175L19.887,9.62C20.7,9.955 21.239,10.196 21.496,10.344C21.906,10.602 22.256,10.974 22.551,11.456C22.812,11.935 22.943,12.492 22.943,13.121C22.943,14.085 22.571,14.934 21.83,15.678C21.092,16.453 19.794,16.973 17.943,17.232C17.795,16.789 17.628,16.399 17.444,16.066C18.627,15.88 19.463,15.659 19.945,15.401C20.499,15.14 20.905,14.808 21.165,14.399C21.423,14.029 21.555,13.585 21.555,13.067C21.555,12.475 21.389,11.955 21.053,11.51C20.647,11.103 20.072,10.789 19.332,10.567C18.925,11.343 18.534,11.936 18.163,12.344C17.869,12.751 17.314,13.453 16.501,14.454C16.612,14.934 16.721,15.324 16.831,15.62L15.556,16.065L15.443,15.454C14.925,15.897 14.462,16.212 14.055,16.398C13.611,16.582 13.241,16.675 12.945,16.675C12.575,16.675 12.241,16.51 11.943,16.176C11.648,15.806 11.5,15.341 11.5,14.786C11.5,14.046 11.665,13.381 12.001,12.786C12.296,12.232 12.741,11.694 13.335,11.177C13.667,10.88 14.222,10.529 15.001,10.12C15.001,9.787 15.036,9.141 15.113,8.175C14.48,8.214 13.981,8.233 13.611,8.233C13.131,8.233 12.741,8.214 12.444,8.175L12.388,6.901C13.276,7.008 14.221,7.066 15.221,7.066C15.221,6.881 15.312,6.16 15.499,4.9L16.942,5.121C16.758,5.789 16.629,6.4 16.551,6.955C16.849,6.919 17.22,6.863 17.664,6.789C18.11,6.716 18.366,6.677 18.441,6.677C18.516,6.677 19.238,6.492 20.607,6.122L20.664,7.399C19.478,7.697 18.035,7.936 16.332,8.122C16.258,8.935 16.221,9.455 16.221,9.679C17.034,9.491 17.794,9.4 18.498,9.4ZM15.22,14.177C15.146,13.584 15.053,12.641 14.943,11.343C14.24,11.862 13.666,12.4 13.222,12.955C12.85,13.473 12.666,14.028 12.666,14.619C12.666,14.917 12.719,15.158 12.832,15.342C12.943,15.454 13.071,15.509 13.222,15.509C13.665,15.509 14.332,15.064 15.22,14.177ZM16.164,10.789C16.164,11.38 16.2,12.121 16.277,13.009C17.017,11.9 17.572,11.049 17.942,10.455C17.238,10.529 16.646,10.642 16.164,10.789Z" style="fill-rule:nonzero;stroke:black;stroke-width:0.15px;"/>
                <path id="english" d="M8.642,16.931L10.911,16.931L7.128,6.083L4.858,6.083L1.078,16.931L3.347,16.931L4.032,14.762L7.97,14.762L8.642,16.931ZM4.359,13L5.994,8.25L7.643,13L4.359,13Z" style="stroke:black;stroke-width:0.15px;"/>
            </g>
            <path d="M299,359L319,308L288,308L288,162L473,162L473,308L349,308L299,359Z" style="fill:none;stroke:black;stroke-width:12.5px;stroke-linecap:round;stroke-linejoin:miter;"/>
        </g>
    </g>
</svg>
