<?xml version="1.0" encoding="UTF-8" standalone="no"?>
<!DOCTYPE svg PUBLIC "-//W3C//DTD SVG 1.1//EN" "http://www.w3.org/Graphics/SVG/1.1/DTD/svg11.dtd">
<svg width="100%" height="100%" viewBox="0 0 534 534" version="1.1" xmlns="http://www.w3.org/2000/svg" xmlns:xlink="http://www.w3.org/1999/xlink" xml:space="preserve" xmlns:serif="http://www.serif.com/" style="fill-rule:evenodd;clip-rule:evenodd;stroke-linejoin:round;stroke-miterlimit:2;">
    <g transform="matrix(0.289086,0,0,0.289086,122.138,122.109)">
        <path d="M500,10C357.5,10 243.5,124 243.5,266.5C243.5,292.4 264.2,313.1 290.1,313.1C316,313.1 336.7,292.4 336.7,266.5C336.7,265.2 336.7,263.8 336.8,262.5C336.7,260 336.6,257.5 336.6,255.1C336.6,164.9 409.7,91.8 499.9,91.8C590.1,91.8 663.2,164.9 663.2,255.1C663.2,305 640.9,349.6 605.6,379.6C590.1,394.6 573,407 556.8,416.9C463.5,473.9 455.6,554.2 458.2,595.7L458.2,712.3C458.2,738.2 473.9,758 499.8,758C525.7,758 541.3,738.2 541.3,712.3L541.3,592.9C541.3,590.3 538.7,535.9 608.7,494.5C704.6,437.5 756.4,354.6 756.4,263.9C756.5,121.4 642.5,10 500,10Z" style="fill-rule:nonzero;"/>
        <path d="M500,867.5C466.3,867.5 438.7,895.1 438.7,928.8C438.7,962.5 466.3,990.1 500,990.1C533.7,990.1 561.3,962.5 561.3,928.8C561.3,895.1 533.7,867.5 500,867.5Z" style="fill-rule:nonzero;"/>
    </g>
</svg>
