<?xml version="1.0" encoding="UTF-8" standalone="no"?>
<!DOCTYPE svg PUBLIC "-//W3C//DTD SVG 1.1//EN" "http://www.w3.org/Graphics/SVG/1.1/DTD/svg11.dtd">
<svg width="100%" height="100%" viewBox="0 0 534 534" version="1.1" xmlns="http://www.w3.org/2000/svg" xmlns:xlink="http://www.w3.org/1999/xlink" xml:space="preserve" xmlns:serif="http://www.serif.com/" style="fill-rule:evenodd;clip-rule:evenodd;stroke-linejoin:round;stroke-miterlimit:2;">
    <g transform="matrix(3.16667,0,0,3.16667,64,64)">
        <g>
            <g transform="matrix(0.0976562,0,0,0.0976562,14,14)">
                <path d="M512,702.836C407.273,702.836 321.164,616.727 321.164,512L321.164,190.836C321.164,86.109 407.273,0 512,0C616.727,0 702.836,86.109 702.836,190.836L702.836,512C702.836,616.727 616.727,702.836 512,702.836ZM512,60.509C439.855,60.509 381.673,118.691 381.673,190.836L381.673,512C381.673,584.145 439.855,642.327 512,642.327C584.145,642.327 642.327,584.145 642.327,512L642.327,190.836C642.327,118.691 584.145,60.509 512,60.509Z" style="fill-rule:nonzero;"/>
            </g>
            <g transform="matrix(0.0976562,0,0,0.0976562,14,14)">
                <path d="M404.945,1024C388.655,1024 374.691,1010.04 374.691,993.745C374.691,977.455 388.655,963.491 404.945,963.491L481.745,963.491L481.745,861.091C395.636,854.109 314.182,814.545 256,749.382C193.164,686.545 160.582,600.436 160.582,512C160.582,495.709 174.545,481.745 190.836,481.745C207.127,481.745 221.091,495.709 221.091,512C221.091,672.582 351.418,802.909 512,802.909C672.582,802.909 802.909,672.582 802.909,512C802.909,495.709 816.873,481.745 833.164,481.745C849.455,481.745 863.418,495.709 863.418,512C863.418,600.436 830.836,686.545 768,751.709C707.491,816.873 628.364,854.109 542.255,863.418L542.255,963.491L619.055,963.491C635.345,963.491 649.309,977.455 649.309,993.745C649.309,1010.04 635.345,1024 619.055,1024L404.945,1024Z" style="fill-rule:nonzero;"/>
            </g>
        </g>
    </g>
</svg>
