<?xml version="1.0" encoding="UTF-8" standalone="no"?>
<!DOCTYPE svg PUBLIC "-//W3C//DTD SVG 1.1//EN" "http://www.w3.org/Graphics/SVG/1.1/DTD/svg11.dtd">
<svg width="100%" height="100%" viewBox="0 0 128 128" version="1.1" xmlns="http://www.w3.org/2000/svg" xmlns:xlink="http://www.w3.org/1999/xlink" xml:space="preserve" xmlns:serif="http://www.serif.com/" style="fill-rule:evenodd;clip-rule:evenodd;stroke-linejoin:round;stroke-miterlimit:2;">
    <g transform="matrix(0.24,0,0,0.24,0,0)">
        <g transform="matrix(0.0391147,1.0481e-33,-1.0481e-33,-0.0391147,71.0906,270.966)">
            <path d="M2883,5005.3C2774.5,4971.8 2705.4,4894.8 2705.4,4802.1C2705.4,4742.9 2758.7,4648.2 2806,4622.6C2829.7,4610.8 2900.7,4593 2963.8,4585.1C3265.7,4541.7 3506.4,4310.9 3709.6,3870.9C3865.5,3533.5 3908.9,3350 4273.9,1546.7C4591.6,-33.8 4642.9,-325.8 4635,-495.5C4621.2,-742.1 4548.2,-852.6 4341,-949.3C4262.1,-984.8 4179.2,-1002.6 4064.8,-1010.5C3974,-1018.4 3871.5,-1036.1 3839.9,-1050C3719.5,-1105.2 3723.5,-1079.6 3709.7,-2093.7C3697.9,-3103.9 3697.9,-3105.8 3575.5,-3376.2C3350.6,-3871.4 2896.8,-4232.5 2366,-4341C2283.1,-4358.7 2168.7,-4372.6 2115.4,-4372.6C1931.9,-4372.6 1837.2,-4443.6 1837.2,-4579.8C1837.2,-4753.4 1935.8,-4808.7 2212.1,-4785C3072.3,-4717.9 3814.2,-4110.2 4056.9,-3277.6C4131.9,-3017.2 4145.7,-2837.6 4145.7,-2111.6L4145.7,-1436.8L4293.7,-1403.3C4788.9,-1294.8 5061.2,-953.5 5061.2,-446.4C5059.2,-294.5 5031.6,-113 4907.3,520.4C4660.7,1781.2 4347,3292.5 4291.7,3497.7C4084.5,4263.4 3688,4804 3226.3,4956C3103.9,4995.4 2934.3,5021.1 2883,5005.3Z" style="fill:white;fill-rule:nonzero;"/>
            <path d="M6975,-10.1C6902,-53.5 6860.5,-158.1 6880.3,-239C6888.2,-268.6 6955.3,-361.3 7030.3,-444.2C7355.8,-799.3 7572.9,-1231.4 7681.4,-1734.5C7738.6,-2002.8 7742.6,-2521.7 7691.3,-2774.3C7582.8,-3287.3 7361.8,-3731.2 7028.4,-4104.1C6953.4,-4190.9 6884.4,-4283.6 6878.5,-4315.2C6860.7,-4392.2 6914,-4502.6 6985.1,-4538.2C7125.2,-4611.2 7212,-4561.9 7440.8,-4283.7C8421.4,-3082.1 8401.7,-1383.4 7391.5,-203.5C7194,27.4 7103.3,68.8 6975,-10.1Z" style="fill:white;fill-rule:nonzero;"/>
            <path d="M6205.5,-789.5C6150.2,-844.7 6138.4,-872.4 6138.4,-937.5C6138.4,-1006.6 6152.2,-1034.2 6233.1,-1123C6422.5,-1332.2 6540.9,-1541.3 6623.7,-1821.4C6669.1,-1971.3 6677,-2032.5 6677,-2261.4C6679,-2454.7 6669.1,-2565.2 6643.4,-2665.9C6596.1,-2855.3 6436.2,-3174.9 6321.8,-3313C6270.5,-3376.1 6207.4,-3455.1 6183.7,-3488.6C6077.2,-3634.6 6173.8,-3820.1 6355.4,-3820.1C6469.8,-3820.1 6730.3,-3524.1 6886.2,-3212.4C7168.3,-2650.1 7178.2,-1953.6 6909.9,-1383.4C6811.3,-1174.3 6692.9,-1000.6 6542.9,-844.8C6436.3,-736.3 6414.7,-722.5 6347.5,-722.5C6288.4,-722.4 6258.8,-736.2 6205.5,-789.5Z" style="fill:white;fill-rule:nonzero;"/>
            <path d="M5475.5,-1507.6C5361,-1600.3 5361,-1704.9 5477.5,-1860.8C5588,-2008.8 5625.5,-2113.3 5625.5,-2271.2C5625.5,-2429.1 5588,-2533.6 5477.5,-2681.6C5376.9,-2815.8 5367,-2884.8 5428.2,-2985.5C5477.5,-3066.4 5584.1,-3099.9 5672.9,-3062.4C5807.1,-3007.2 5974.8,-2746.7 6030,-2513.9C6108.9,-2176.5 6012.2,-1805.6 5781.4,-1566.8C5700.5,-1482 5682.7,-1472.1 5603.8,-1472.1C5552.4,-1472.1 5501.2,-1485.9 5475.5,-1507.6Z" style="fill:white;fill-rule:nonzero;"/>
        </g>
    </g>
</svg>
