<?xml version="1.0" encoding="UTF-8" standalone="no"?>
<!DOCTYPE svg PUBLIC "-//W3C//DTD SVG 1.1//EN" "http://www.w3.org/Graphics/SVG/1.1/DTD/svg11.dtd">
<svg width="100%" height="100%" viewBox="0 0 128 128" version="1.1" xmlns="http://www.w3.org/2000/svg" xmlns:xlink="http://www.w3.org/1999/xlink" xml:space="preserve" xmlns:serif="http://www.serif.com/" style="fill-rule:evenodd;clip-rule:evenodd;stroke-linejoin:round;stroke-miterlimit:2;">
    <g transform="matrix(0.24,0,0,0.24,0,0)">
        <g transform="matrix(0.292969,0,0,0.292969,114.567,116.667)">
            <path d="M512.683,0C487.083,0 470.016,17.067 470.016,42.667L470.016,85.333C231.083,110.933 43.349,307.2 43.349,554.667C43.349,810.667 256.683,1024 512.683,1024C768.683,1024 982.016,810.667 982.016,554.667C982.016,307.2 794.283,110.933 555.349,85.333L555.349,42.667C555.349,17.067 538.283,0 512.683,0ZM832.683,64C822.016,64 811.349,68.267 802.816,76.8C785.749,93.867 785.749,128 802.816,136.533L922.453,256C939.52,273.067 965.12,273.067 982.187,256C999.253,238.933 999.253,213.333 982.187,196.267L862.72,76.8C854.884,68.709 844.117,64.094 832.853,64L832.683,64ZM512.683,170.667C726.016,170.667 896.683,341.333 896.683,554.667C896.683,768 726.016,938.667 512.683,938.667C299.349,938.667 128.683,768 128.683,554.667C128.683,341.333 299.349,170.667 512.683,170.667ZM512.683,298.667C487.083,298.667 470.016,315.733 470.016,341.333L470.016,571.733L615.083,708.267C632.149,725.333 657.749,725.333 674.816,708.267C691.883,691.2 691.883,665.6 674.816,648.533L555.349,537.6L555.349,341.333C555.349,315.733 538.283,298.667 512.683,298.667Z" style="fill:white;fill-rule:nonzero;"/>
        </g>
    </g>
</svg>
